<svg id="logo" xmlns="http://www.w3.org/2000/svg" viewBox="0 0 473.67 452.49"><defs><style>.cls-1{fill:#9f1f24;}</style></defs><title>云轩logo</title><path class="cls-1" d="M378.82,409.4s174.61-66.06,235.73-6.86-106.46,71.65-120.68,72.91c-96.8,8.58-164.16-3.39-197.73,32.6-29.24,31.35,71.56,18,154.11,0s241.34-25.74,256.27,21.53c12.29,38.91-46.77,60.26-178.78,41.95-117.52-16.3-110.86,54.55-110.86,54.55s-9.49-19.38,6.38-44.26,46.2-44.28,141.29-36.88c99.21,7.72,117.47-48.9-14.29-30-110.1,15.77-156.75,52.29-247.64,48.9-17.88-.67-22.22-2.57-46.83-14.58-27-24-38-54.71,26.19-81.5,45.24-18.87,69-7.52,140.49-8.58,115.93-1.71,173.82-22.3,134.69-55.77C522.25,373.52,378.82,409.4,378.82,409.4Z" transform="translate(-234.44 -377.9)"/><path class="cls-1" d="M453.75,735.18l10.68-18.66a5.57,5.57,0,0,1,4.84-2.81h77.25a5.6,5.6,0,0,1,4.61,2.44l35.13,51.57a15.22,15.22,0,0,1-1.47,19L549,825a17.15,17.15,0,0,1-12.52,5.43H423.35a14.19,14.19,0,0,1-10.67-4.84l-33.52-38.3a18.83,18.83,0,0,1-2.72-20.73l42.94-87.07a5.56,5.56,0,0,0-.51-5.77L376.65,616.3S392.7,633.35,412.14,632c26.35-1.56,124-.08,128.73,0l.33,0c1.76.12,18.67.87,35.93-15.68l-28.86,38.81a5.56,5.56,0,0,1-4.47,2.25H441.07l12.47,16.26a6.19,6.19,0,0,1,0,5.59l-45.9,91.71a5.58,5.58,0,0,0,.85,6.24l25,26.22a5.55,5.55,0,0,0,4.13,1.84h83.83a5.6,5.6,0,0,0,3.91-1.6l21.16-19.38a11.2,11.2,0,0,0,1.52-14.15l-19.23-29.26a5.57,5.57,0,0,0-4.66-2.51H492.62a5.58,5.58,0,0,0-4.44,9l16.44,21.56a5.57,5.57,0,0,1-4.44,8.95H483.61a5.57,5.57,0,0,1-4.5-2.29l-25-34.26A5.58,5.58,0,0,1,453.75,735.18Z" transform="translate(-234.44 -377.9)"/></svg>